<svg xmlns="http://www.w3.org/2000/svg" width="60" height="60" viewBox="0 0 60 60" fill="none"><path d="M47.8125 29.3399C49.1206 29.3399 50.3402 29.9486 51.125 30.9815L51.3545 31.3028C51.7604 31.8368 52.3916 32.1524 53.0674 32.1524C54.5513 32.1525 55.7678 33.2766 55.9375 34.7197L55.9658 34.9649H58.7852V36.2852H55.9727V39.2471C55.9731 41.8868 55.5474 44.5097 54.7119 47.0137L54.4365 47.8408C54.2846 48.298 53.9924 48.6968 53.6016 48.9785C53.2109 49.26 52.7413 49.4106 52.2598 49.4102L52.2588 49.6875V49.4102C51.0522 49.41 50.091 48.5192 49.9756 47.3867L49.9648 47.1572C49.9687 45.9968 49.7772 44.8451 49.4004 43.75L49.2275 43.2842L48.4854 41.4287C48.3643 41.1257 48.0663 40.999 47.8125 40.999C47.5584 40.9992 47.261 41.1263 47.1396 41.4297L46.3975 43.2852C45.9693 44.3573 45.7259 45.4784 45.6719 46.624L45.6602 47.1162C45.6589 47.723 45.418 48.305 44.9893 48.7344C44.5604 49.1638 43.9789 49.4061 43.3721 49.4082H43.3643C42.8838 49.4104 42.4149 49.2604 42.0244 48.9805C41.6826 48.7355 41.4162 48.4016 41.2529 48.0166L41.1895 47.8487L40.9131 47.0186C40.0761 44.5083 39.6514 41.8936 39.6514 39.2471V36.3067L39.3447 36.3389C38.52 36.4266 37.7113 36.6273 36.9414 36.9356C34.9069 37.7484 32.7655 38.1602 30.5752 38.1602H29.4238V38.4375L29.4229 38.1602C27.3789 38.1617 25.3523 37.7969 23.4395 37.083L23.0586 36.9356C22.2884 36.6273 21.4793 36.4265 20.6543 36.3389L20.3477 36.3067V39.2471C20.3485 41.8887 19.9223 44.5129 19.0859 47.0186L18.8096 47.8487C18.6586 48.3027 18.3686 48.6977 17.9805 48.9776C17.5921 49.2574 17.1251 49.4086 16.6465 49.4082H16.6396C16.0309 49.4087 15.4468 49.167 15.0156 48.7373C14.6382 48.3612 14.405 47.8673 14.3516 47.3418L14.3398 47.1153C14.3398 45.798 14.0917 44.5091 13.6025 43.2852L12.8604 41.4278C12.7393 41.1248 12.4413 40.9981 12.1875 40.9981C11.9334 40.9982 11.636 41.1253 11.5146 41.4287L10.7734 43.2842C10.2842 44.5092 10.0352 45.7995 10.0352 47.1162C10.035 48.4025 9.0221 49.4101 7.7832 49.4102C6.74854 49.4102 5.87551 48.7774 5.5625 47.8408L5.28711 47.0137C4.45183 44.5042 4.0274 41.8909 4.02734 39.2471V36.2852H1.21484V34.9649H4.0332L4.0625 34.7197C4.23321 33.2764 5.4489 32.1525 6.93262 32.1524L7.06543 32.1485C7.37382 32.1296 7.67494 32.0438 7.94824 31.8975C8.26067 31.7302 8.52742 31.4885 8.72363 31.1934C9.49721 30.0322 10.7922 29.3399 12.1875 29.3399C13.4956 29.3399 14.7152 29.9486 15.5 30.9815L15.7295 31.3028C16.1354 31.8368 16.7666 32.1524 17.4424 32.1524C18.94 32.1525 20.1638 33.2966 20.3164 34.7588L20.3408 34.9863L20.5693 35.0059C21.5917 35.091 22.596 35.3269 23.5488 35.7071V35.708C25.4258 36.4599 27.404 36.8399 29.4248 36.8399H30.5762C32.5892 36.8418 34.5845 36.4579 36.4531 35.709L36.4521 35.708C37.4048 35.3272 38.4092 35.0915 39.4316 35.0069L39.6602 34.9873L39.6846 34.7588C39.8365 33.2961 41.061 32.1525 42.5576 32.1524L42.6904 32.1485C42.9988 32.1296 43.2999 32.0438 43.5732 31.8975C43.8857 31.7302 44.1524 31.4885 44.3486 31.1934C45.1222 30.0322 46.4172 29.3399 47.8125 29.3399ZM18.6953 36.4971L17.8877 36.6592C14.1388 37.4086 10.2352 37.4086 6.4873 36.6592L5.67969 36.4971L5.34766 36.4307V39.2461C5.34706 41.7438 5.75056 44.2255 6.54102 46.5947L6.81641 47.4229C6.88089 47.617 7.005 47.7856 7.1709 47.9053C7.33696 48.025 7.5365 48.0901 7.74121 48.0899L7.8418 48.085C8.33776 48.0384 8.71484 47.6501 8.71484 47.1572V47.1563C8.71017 45.6623 8.99207 44.1814 9.5459 42.794L10.2881 40.9385C10.6014 40.1557 11.3464 39.6524 12.1875 39.6524C13.0286 39.6524 13.7736 40.1557 14.0869 40.9375L14.8291 42.7959C15.3804 44.176 15.6602 45.63 15.6602 47.1162V47.1172C15.661 47.3736 15.7633 47.6193 15.9443 47.8008C16.1253 47.9823 16.3707 48.0843 16.627 48.086L16.6279 48.0869H16.6309V48.086C16.8337 48.0885 17.0324 48.0271 17.1982 47.9102C17.365 47.7924 17.4904 47.6251 17.5557 47.4317V47.4307L17.832 46.6006C18.6252 44.2259 19.0273 41.7516 19.0273 39.2471V36.4307L18.6953 36.4971ZM54.3213 36.4971L53.5127 36.6582C49.7638 37.4076 45.8602 37.4076 42.1123 36.6582L41.3037 36.4971L40.9727 36.4307V39.2461C40.9715 41.7459 41.3757 44.2297 42.168 46.6006L42.4443 47.4307C42.5078 47.6216 42.6298 47.7876 42.793 47.9053C42.9561 48.0229 43.1525 48.0859 43.3535 48.086V48.0869L43.3545 48.086V48.0869L43.3564 48.086C43.4839 48.087 43.6103 48.0633 43.7285 48.0156C43.8476 47.9677 43.9563 47.8966 44.0479 47.8067C44.1393 47.7167 44.2127 47.6094 44.2627 47.4912C44.3126 47.3732 44.3389 47.2463 44.3398 47.1182V47.1162C44.3386 45.6364 44.6205 44.1696 45.1709 42.7959L45.9131 40.9385L45.9775 40.7949C46.3206 40.0948 47.0241 39.6524 47.8125 39.6524C48.6536 39.6524 49.3986 40.1557 49.7119 40.9375L50.4541 42.794L50.6484 43.3155C51.0714 44.5399 51.2852 45.8158 51.2852 47.1162C51.2853 47.6609 51.6921 48.0898 52.2178 48.0899C52.6699 48.0899 53.0474 47.8302 53.1836 47.4229L53.459 46.5947C54.2502 44.2202 54.6523 41.7488 54.6523 39.2471V36.4307L54.3213 36.4971ZM7.87695 47.7989C7.83327 47.8065 7.78817 47.8125 7.74121 47.8125C7.78816 47.8125 7.83327 47.8065 7.87695 47.7989ZM52.2178 47.8125C52.1749 47.8125 52.1333 47.8068 52.0928 47.7989C52.1333 47.8068 52.1749 47.8125 52.2178 47.8125ZM16.7256 47.8028C16.6942 47.8066 16.6627 47.8101 16.6309 47.8096C16.6626 47.8101 16.6943 47.8066 16.7256 47.8028ZM16.2461 47.6924C16.321 47.7425 16.4049 47.7778 16.4932 47.7959C16.4049 47.7778 16.321 47.7425 16.2461 47.6924ZM7.63184 47.8037C7.60264 47.7991 7.57418 47.7915 7.5459 47.7832C7.5742 47.7915 7.60264 47.7991 7.63184 47.8037ZM16.8242 47.7832C16.8026 47.7892 16.7809 47.7941 16.7588 47.7979C16.7809 47.7941 16.8026 47.7892 16.8242 47.7832ZM8.00586 47.7637C7.97821 47.774 7.9495 47.7811 7.91992 47.7881C7.9495 47.7811 7.9782 47.774 8.00586 47.7637ZM52.0508 47.7881C52.0252 47.7813 51.9999 47.7745 51.9756 47.7647C51.9999 47.7745 52.0252 47.7813 52.0508 47.7881ZM7.49707 47.7666C7.4805 47.7604 7.46432 47.7536 7.44824 47.7461C7.46433 47.7536 7.48049 47.7604 7.49707 47.7666ZM42.9551 47.6807C42.9923 47.7075 43.0328 47.7294 43.0742 47.7481C43.0327 47.7293 42.9924 47.7076 42.9551 47.6807ZM8.12012 47.709C8.09639 47.7232 8.07171 47.7356 8.0459 47.7471C8.07171 47.7357 8.09638 47.7232 8.12012 47.709ZM51.9365 47.7461C51.9122 47.7342 51.8888 47.721 51.8662 47.7061C51.8888 47.721 51.9122 47.7342 51.9365 47.7461ZM7.33301 47.6807C7.35888 47.6993 7.38612 47.7157 7.41406 47.7305C7.38614 47.7157 7.35889 47.6993 7.33301 47.6807ZM14.1084 47.5889C14.1154 47.626 14.1252 47.6625 14.1338 47.6992C14.1275 47.6727 14.1187 47.6469 14.1133 47.6201L14.1084 47.5889ZM8.2207 47.6348C8.20084 47.6525 8.18034 47.6692 8.1582 47.6846C8.18035 47.6692 8.20083 47.6525 8.2207 47.6348ZM51.8311 47.6807C51.8108 47.6653 51.7918 47.6487 51.7734 47.6309C51.7918 47.6487 51.8108 47.6653 51.8311 47.6807ZM8.30176 47.5469C8.28633 47.5669 8.27069 47.5864 8.25293 47.6045C8.2707 47.5864 8.28632 47.5669 8.30176 47.5469ZM51.7393 47.5957C51.7221 47.5763 51.7064 47.5558 51.6914 47.5342C51.7064 47.5558 51.722 47.5763 51.7393 47.5957ZM8.37109 47.4375C8.35879 47.4628 8.34558 47.4874 8.33008 47.5108C8.3456 47.4874 8.35878 47.4628 8.37109 47.4375ZM51.6689 47.502C51.6521 47.4745 51.6381 47.4453 51.625 47.4151C51.6381 47.4454 51.6521 47.4745 51.6689 47.502ZM8.42383 47.2891C8.41565 47.3287 8.40287 47.3667 8.3877 47.4033C8.40289 47.3666 8.41565 47.3287 8.42383 47.2891ZM51.5762 47.2617C51.5844 47.3054 51.5962 47.3471 51.6113 47.3867C51.5963 47.3471 51.5843 47.3053 51.5762 47.2617ZM14.0508 46.6533C14.0578 46.8072 14.0625 46.9615 14.0625 47.1162C14.0625 46.9616 14.0578 46.8071 14.0508 46.6533ZM55.2109 46.3477C55.1357 46.5996 55.0579 46.8509 54.9746 47.1006C55.0579 46.8509 55.1357 46.5996 55.2109 46.3477ZM10.3145 47.0186C10.3156 46.8966 10.3187 46.7748 10.3242 46.6533C10.3187 46.7748 10.3156 46.8966 10.3145 47.0186ZM45.9395 47.0186C45.9406 46.8965 45.9437 46.7748 45.9492 46.6533C45.9437 46.7748 45.9406 46.8965 45.9395 47.0186ZM49.6777 46.6963C49.6822 46.802 49.6834 46.9078 49.6846 47.0137C49.6834 46.9078 49.6822 46.802 49.6777 46.6963ZM4.74609 46.21C4.79614 46.3814 4.84857 46.5522 4.90234 46.7227C4.84858 46.5522 4.79613 46.3814 4.74609 46.21ZM14.0205 46.211C14.0304 46.321 14.0377 46.4314 14.0439 46.542C14.0377 46.4314 14.0304 46.321 14.0205 46.211ZM45.9561 46.542C45.9623 46.4314 45.9686 46.321 45.9785 46.211C45.9686 46.321 45.9623 46.4314 45.9561 46.542ZM49.6475 46.2383C49.6555 46.3296 49.6614 46.4211 49.667 46.5127C49.6614 46.4211 49.6555 46.3296 49.6475 46.2383ZM10.333 46.5059C10.3385 46.4156 10.3437 46.3253 10.3516 46.2354C10.3437 46.3253 10.3385 46.4156 10.333 46.5059ZM53.3379 46.0684C53.3125 46.1499 53.2861 46.2312 53.2598 46.3125C53.2861 46.2312 53.3125 46.1499 53.3379 46.0684ZM6.68945 46.1543C6.6805 46.1259 6.67096 46.0978 6.66211 46.0694C6.67096 46.0978 6.68049 46.1259 6.68945 46.1543ZM49.5986 45.8028C49.6105 45.8925 49.6214 45.9823 49.6309 46.0723C49.6214 45.9823 49.6105 45.8925 49.5986 45.8028ZM13.9697 45.7598C13.981 45.8429 13.9908 45.9263 14 46.0098C13.9908 45.9263 13.981 45.8429 13.9697 45.7598ZM46.001 46.0078C46.0098 45.9283 46.0186 45.8488 46.0293 45.7696C46.0186 45.8488 46.0098 45.9283 46.001 46.0078ZM10.376 46.002C10.3846 45.9244 10.3938 45.8469 10.4043 45.7696C10.3939 45.8469 10.3846 45.9244 10.376 46.002ZM49.5283 45.3467C49.5429 45.4282 49.5558 45.51 49.5684 45.5918C49.5558 45.51 49.5429 45.4282 49.5283 45.3467ZM46.0557 45.585C46.0687 45.5005 46.0825 45.4162 46.0977 45.3321C46.0825 45.4162 46.0687 45.5005 46.0557 45.585ZM13.9014 45.3311C13.9165 45.4152 13.9304 45.4995 13.9434 45.584C13.9304 45.4995 13.9165 45.4152 13.9014 45.3311ZM10.4336 45.5694C10.4476 45.4793 10.463 45.3895 10.4795 45.2998C10.463 45.3895 10.4476 45.4793 10.4336 45.5694ZM53.5928 45.1875C53.5696 45.274 53.5447 45.3601 53.5205 45.4463C53.5447 45.3601 53.5696 45.274 53.5928 45.1875ZM49.4268 44.8565C49.4501 44.9578 49.4729 45.0592 49.4932 45.1612C49.4729 45.0592 49.4501 44.9578 49.4268 44.8565ZM10.5098 45.1387C10.5283 45.0466 10.5492 44.9549 10.5703 44.8633C10.5492 44.9549 10.5283 45.0466 10.5098 45.1387ZM46.1387 45.1182C46.156 45.0329 46.1757 44.9482 46.1953 44.8633C46.1758 44.9482 46.156 45.0329 46.1387 45.1182ZM13.8027 44.8506C13.8233 44.9392 13.8423 45.0281 13.8604 45.1172C13.8423 45.0281 13.8233 44.9392 13.8027 44.8506ZM6.28125 44.6973C6.30623 44.7994 6.33299 44.9011 6.35938 45.003C6.33299 44.9011 6.30622 44.7994 6.28125 44.6973ZM53.7012 44.7666C53.6872 44.823 53.6726 44.8793 53.6582 44.9356C53.6726 44.8793 53.6872 44.823 53.7012 44.7666ZM41.9609 44.916C41.9522 44.8818 41.9431 44.8477 41.9346 44.8135C41.9431 44.8477 41.9522 44.8818 41.9609 44.916ZM18.0674 44.8028C18.0584 44.8386 18.0492 44.8744 18.04 44.9102C18.0492 44.8744 18.0584 44.8386 18.0674 44.8028ZM49.3213 44.4375C49.3466 44.5291 49.3718 44.6207 49.3945 44.7129C49.3718 44.6207 49.3466 44.5291 49.3213 44.4375ZM13.6719 44.3438C13.7069 44.4656 13.7392 44.5881 13.7695 44.711C13.7392 44.5881 13.7069 44.4656 13.6719 44.3438ZM46.2334 44.6992C46.2603 44.591 46.2898 44.4834 46.3203 44.376C46.2898 44.4834 46.2603 44.591 46.2334 44.6992ZM6.27637 44.6729C6.2497 44.5633 6.22328 44.4537 6.19824 44.3438C6.22328 44.4537 6.2497 44.5633 6.27637 44.6729ZM10.6152 44.6729C10.6391 44.5781 10.6648 44.4838 10.6914 44.3897C10.6648 44.4838 10.639 44.5781 10.6152 44.6729ZM18.1768 44.3438C18.1641 44.3995 18.1508 44.4551 18.1377 44.5108C18.1508 44.4551 18.1641 44.3995 18.1768 44.3438ZM41.8623 44.5108C41.849 44.4544 41.8351 44.3982 41.8223 44.3418C41.8351 44.3982 41.849 44.4544 41.8623 44.5108ZM53.8086 44.3125C53.7936 44.3787 53.7783 44.4447 53.7627 44.5108C53.7783 44.4447 53.7936 44.3787 53.8086 44.3125ZM46.4873 43.8389C46.4376 43.9827 46.3907 44.1271 46.3477 44.2725C46.3907 44.1271 46.4376 43.9827 46.4873 43.8389ZM13.5127 43.8369C13.5624 43.9806 13.6084 44.1252 13.6514 44.2705C13.6084 44.1252 13.5624 43.9806 13.5127 43.8369ZM10.8633 43.8369C10.8137 43.9803 10.7675 44.1246 10.7246 44.2696C10.7675 44.1246 10.8137 43.9803 10.8633 43.8369ZM53.9004 43.8906C53.8825 43.9774 53.8637 44.0639 53.8447 44.1504C53.8637 44.0639 53.8825 43.9774 53.9004 43.8906ZM18.2754 43.8906C18.2579 43.9754 18.2392 44.06 18.2207 44.1446C18.2392 44.06 18.2579 43.9754 18.2754 43.8906ZM41.7686 44.0977C41.7533 44.0271 41.7382 43.9565 41.7236 43.8858C41.7382 43.9565 41.7533 44.0271 41.7686 44.0977ZM6.12402 44.0049C6.11885 43.9805 6.11349 43.9561 6.1084 43.9317C6.11349 43.9561 6.11885 43.9805 6.12402 44.0049ZM41.6846 43.6895C41.6704 43.6179 41.656 43.5464 41.6426 43.4746C41.656 43.5464 41.6704 43.6179 41.6846 43.6895ZM18.3574 43.4746C18.3452 43.5398 18.3321 43.6049 18.3193 43.6699C18.3321 43.6049 18.3452 43.5398 18.3574 43.4746ZM6.05469 43.6641C6.03958 43.587 6.02506 43.5098 6.01074 43.4326C6.02506 43.5098 6.03957 43.587 6.05469 43.6641ZM53.9717 43.5235C53.9681 43.5423 53.9655 43.5613 53.9619 43.5801C53.9655 43.5613 53.9681 43.5423 53.9717 43.5235ZM5.9834 43.2842C5.96487 43.1805 5.94679 43.0767 5.92969 42.9727C5.94679 43.0767 5.96486 43.1805 5.9834 43.2842ZM54.0635 43.0127C54.0507 43.0896 54.037 43.1664 54.0234 43.2432C54.037 43.1664 54.0507 43.0896 54.0635 43.0127ZM41.5967 43.2207C41.5896 43.1807 41.582 43.1407 41.5752 43.1006C41.582 43.1407 41.5896 43.1807 41.5967 43.2207ZM18.4238 43.1006C18.4172 43.1397 18.4102 43.1787 18.4033 43.2178C18.4102 43.1787 18.4172 43.1397 18.4238 43.1006ZM5.90137 42.7959C5.88854 42.714 5.87619 42.6319 5.86426 42.5498C5.87619 42.6319 5.88854 42.714 5.90137 42.7959ZM54.1357 42.5498C54.1238 42.6319 54.1115 42.714 54.0986 42.7959C54.1115 42.714 54.1238 42.6319 54.1357 42.5498ZM18.502 42.6104C18.4929 42.6716 18.4842 42.7328 18.4746 42.794C18.4842 42.7328 18.4929 42.6716 18.502 42.6104ZM41.5254 42.794C41.5161 42.7344 41.5069 42.6749 41.498 42.6153C41.5069 42.6749 41.5161 42.7344 41.5254 42.794ZM18.5654 42.1475C18.5553 42.2273 18.5452 42.3071 18.5342 42.3867C18.5452 42.3071 18.5553 42.2273 18.5654 42.1475ZM54.1982 42.084C54.1858 42.184 54.1729 42.284 54.1592 42.3838C54.1729 42.284 54.1858 42.184 54.1982 42.084ZM41.4639 42.3799C41.4534 42.3038 41.4443 42.2276 41.4346 42.1514C41.4443 42.2276 41.4534 42.3038 41.4639 42.3799ZM5.83887 42.375C5.82555 42.2781 5.81384 42.1811 5.80176 42.084C5.81384 42.1811 5.82555 42.2781 5.83887 42.375ZM54.251 41.6201C54.2401 41.7247 54.2281 41.8292 54.2158 41.9336C54.2281 41.8292 54.2401 41.7247 54.251 41.6201ZM18.6182 41.6934C18.6097 41.7722 18.601 41.851 18.5918 41.9297C18.601 41.851 18.6097 41.7722 18.6182 41.6934ZM5.78223 41.9258C5.77028 41.824 5.75961 41.7221 5.74902 41.6201C5.75961 41.7221 5.77027 41.824 5.78223 41.9258ZM41.4053 41.9112C41.3977 41.8461 41.3908 41.781 41.3838 41.7158C41.3908 41.781 41.3977 41.8461 41.4053 41.9112ZM18.6699 41.1582C18.6599 41.2785 18.6486 41.3986 18.6367 41.5186C18.6486 41.3986 18.6599 41.2785 18.6699 41.1582ZM5.7334 41.4707C5.72473 41.3816 5.71661 41.2924 5.70898 41.2031C5.71661 41.2924 5.72473 41.3816 5.7334 41.4707ZM54.2949 41.1533C54.2861 41.2592 54.2769 41.365 54.2666 41.4707C54.2769 41.365 54.2861 41.2592 54.2949 41.1533ZM41.3564 41.4658C41.3503 41.4028 41.3464 41.3395 41.3408 41.2764C41.3464 41.3395 41.3503 41.4028 41.3564 41.4658ZM56.1807 41.1006C56.1723 41.213 56.1623 41.3253 56.1523 41.4375C56.1623 41.3253 56.1723 41.213 56.1807 41.1006ZM3.82031 41.1153C3.82817 41.2195 3.83751 41.3236 3.84668 41.4278C3.83752 41.3236 3.82816 41.2195 3.82031 41.1153ZM5.66699 40.6348C5.65901 40.5027 5.65315 40.3705 5.64746 40.2383C5.65316 40.3705 5.65901 40.5027 5.66699 40.6348ZM18.6943 40.8233C18.6891 40.9001 18.6847 40.977 18.6787 41.0537C18.6847 40.977 18.6891 40.9001 18.6943 40.8233ZM41.3213 41.0537C41.3145 40.9672 41.3086 40.8806 41.3027 40.794C41.3086 40.8806 41.3145 40.9672 41.3213 41.0537ZM54.3213 40.7949C54.3155 40.8812 54.3105 40.9676 54.3037 41.0537C54.3105 40.9676 54.3155 40.8812 54.3213 40.7949ZM14.2715 40.6729V40.6719V40.6729ZM49.8965 40.6729V40.6719V40.6729ZM20.6055 40.2471C20.6033 40.3005 20.6001 40.3539 20.5977 40.4072C20.6006 40.3435 20.604 40.2797 20.6064 40.2158L20.6055 40.2471ZM56.2305 40.2471C56.2283 40.3005 56.2251 40.3539 56.2227 40.4072C56.2256 40.3435 56.229 40.2797 56.2314 40.2158L56.2305 40.2471ZM10.3838 40.2324V40.2334V40.2324ZM46.0088 40.2324V40.2334V40.2324ZM33.0547 38.2617H33.0557H33.0547ZM36.2637 37.4834C35.8712 37.6191 35.4753 37.7408 35.0762 37.8477L34.6758 37.9492C35.2108 37.8195 35.7404 37.6644 36.2637 37.4834ZM7.14453 37.0635C7.55253 37.1345 7.96228 37.1954 8.37305 37.249C8.20139 37.2266 8.02961 37.2052 7.8584 37.1797L7.14453 37.0635ZM17.2568 37.0576C16.898 37.1205 16.5378 37.1753 16.1768 37.2246C16.5378 37.1753 16.898 37.1204 17.2568 37.0576ZM52.8555 37.0635C52.5055 37.1244 52.1538 37.1755 51.8018 37.2237C52.1686 37.1735 52.5348 37.1188 52.8994 37.0547L52.8555 37.0635ZM28.3457 36.5254C28.5807 36.5416 28.8164 36.5531 29.0527 36.5586C28.8163 36.5531 28.5807 36.5416 28.3457 36.5254ZM28.0674 36.503C28.0462 36.5011 28.025 36.5 28.0039 36.4981C28.025 36.5 28.0462 36.5011 28.0674 36.503ZM27.2324 36.4072C27.4346 36.4359 27.6374 36.4608 27.8408 36.4815C27.6374 36.4607 27.4346 36.436 27.2324 36.4072ZM27.1572 36.3965C27.0698 36.3836 26.9826 36.3698 26.8955 36.3555C26.9826 36.3698 27.0698 36.3837 27.1572 36.3965ZM26.791 36.3379C26.6962 36.3216 26.6014 36.3052 26.5068 36.2871C26.6014 36.3052 26.6962 36.3216 26.791 36.3379ZM26.4561 36.2774C26.3706 36.2607 26.2854 36.2427 26.2002 36.2246C26.2854 36.2427 26.3706 36.2607 26.4561 36.2774ZM26.0508 36.1924C25.982 36.1771 25.9134 36.1608 25.8447 36.1446C25.9134 36.1608 25.982 36.1771 26.0508 36.1924ZM25.6963 36.1094C25.6428 36.0961 25.5895 36.0822 25.5361 36.0684C25.5895 36.0822 25.6428 36.0962 25.6963 36.1094ZM25.3486 36.0186C25.303 36.0061 25.2575 35.9934 25.2119 35.9805C25.2575 35.9933 25.303 36.0061 25.3486 36.0186ZM12.1875 30.6602C11.2948 30.6602 10.4613 31.0773 9.92578 31.7822L9.82227 31.9268C9.17607 32.8951 8.09615 33.4727 6.93262 33.4727H6.93164C6.55367 33.4739 6.18869 33.6107 5.90234 33.8574C5.61589 34.1043 5.42704 34.4455 5.37012 34.8194L5.33008 35.0811L5.58984 35.1328L6.74512 35.3643H6.74609C10.3379 36.0781 14.0351 36.0781 17.627 35.3643H17.6279L18.7842 35.1328L19.043 35.0811L19.0029 34.8194C18.8873 34.061 18.2366 33.4728 17.4424 33.4727C16.8706 33.4732 16.3068 33.3323 15.8027 33.0625C15.3619 32.8265 14.9779 32.4986 14.6768 32.1016L14.5527 31.9268C14.0251 31.1343 13.1397 30.6602 12.1875 30.6602ZM47.8125 30.6602C46.9198 30.6602 46.0863 31.0773 45.5508 31.7822L45.4473 31.9268C44.8011 32.8951 43.7211 33.4727 42.5576 33.4727H42.5566C42.1787 33.4739 41.8137 33.6107 41.5273 33.8574C41.2409 34.1043 41.052 34.4455 40.9951 34.8194L40.9551 35.0811L41.2148 35.1328L42.3701 35.3643H42.3711C45.9629 36.0781 49.6601 36.0781 53.252 35.3643H53.2529L54.4092 35.1328L54.668 35.0811L54.6279 34.8194C54.5123 34.061 53.8616 33.4728 53.0674 33.4727C52.4956 33.4732 51.9318 33.3323 51.4277 33.0625C50.9869 32.8265 50.6029 32.4986 50.3018 32.1016L50.1777 31.9268C49.6501 31.1343 48.7647 30.6602 47.8125 30.6602ZM24.6445 35.8086C24.623 35.8016 24.6016 35.7942 24.5801 35.7871C24.6016 35.7942 24.623 35.8016 24.6445 35.8086ZM24.3125 35.6973C24.2916 35.69 24.2709 35.6822 24.25 35.6748C24.2709 35.6822 24.2916 35.69 24.3125 35.6973ZM12.7031 35.6162C12.5811 35.6185 12.459 35.6204 12.3369 35.6211C12.459 35.6205 12.5811 35.6185 12.7031 35.6162ZM48.3281 35.6162C48.2061 35.6185 48.084 35.6204 47.9619 35.6211C48.084 35.6205 48.2061 35.6185 48.3281 35.6162ZM47.6611 35.6211C47.5286 35.6204 47.3962 35.6179 47.2637 35.6153C47.3962 35.6179 47.5286 35.6204 47.6611 35.6211ZM12.0361 35.6211C11.9036 35.6204 11.7712 35.6179 11.6387 35.6153C11.7712 35.6179 11.9036 35.6204 12.0361 35.6211ZM13.3477 35.5967C13.2171 35.6022 13.0866 35.6067 12.9561 35.6104C13.0866 35.6067 13.2171 35.6022 13.3477 35.5967ZM48.9727 35.5967C48.8421 35.6022 48.7116 35.6067 48.5811 35.6104C48.7116 35.6067 48.8421 35.6022 48.9727 35.5967ZM11.3789 35.6094C11.261 35.606 11.1432 35.6017 11.0254 35.5967C11.1432 35.6017 11.261 35.6059 11.3789 35.6094ZM47.0039 35.6094C46.886 35.606 46.7682 35.6017 46.6504 35.5967C46.7682 35.6017 46.886 35.6059 47.0039 35.6094ZM10.7119 35.5821C10.5715 35.5746 10.4313 35.5653 10.291 35.5557C10.4313 35.5653 10.5715 35.5746 10.7119 35.5821ZM14.002 35.5606C13.8877 35.5681 13.7735 35.5759 13.6592 35.5821C13.7735 35.576 13.8877 35.5681 14.002 35.5606ZM46.3369 35.5821C46.1965 35.5746 46.0563 35.5653 45.916 35.5557C46.0563 35.5653 46.1965 35.5746 46.3369 35.5821ZM49.627 35.5606C49.5127 35.5681 49.3985 35.5759 49.2842 35.5821C49.3985 35.576 49.5127 35.5681 49.627 35.5606ZM10.0967 35.542C9.93642 35.5299 9.7763 35.5159 9.61621 35.501C9.77629 35.516 9.93642 35.5299 10.0967 35.542ZM45.7217 35.542C45.5614 35.5299 45.4013 35.5159 45.2412 35.501C45.4013 35.516 45.5614 35.5299 45.7217 35.542ZM14.6816 35.5078C14.5492 35.5198 14.4167 35.5309 14.2842 35.541C14.4167 35.5309 14.5492 35.5198 14.6816 35.5078ZM50.3066 35.5078C50.1742 35.5198 50.0417 35.5309 49.9092 35.541C50.0417 35.5309 50.1742 35.5198 50.3066 35.5078ZM9.42871 35.4834C9.27786 35.4683 9.12721 35.4512 8.97656 35.4336C9.12721 35.4512 9.27786 35.4683 9.42871 35.4834ZM45.0537 35.4834C44.9029 35.4683 44.7522 35.4512 44.6016 35.4336C44.7522 35.4512 44.9029 35.4683 45.0537 35.4834ZM15.2939 35.4453C15.1804 35.4582 15.0668 35.471 14.9531 35.4824C15.0668 35.471 15.1804 35.4582 15.2939 35.4453ZM50.9189 35.4453C50.8054 35.4582 50.6918 35.471 50.5781 35.4824C50.6918 35.471 50.8054 35.4582 50.9189 35.4453ZM6.7998 35.0928C7.45036 35.2221 8.10448 35.3272 8.76074 35.4092C8.10448 35.3272 7.45036 35.2221 6.7998 35.0928ZM42.4248 35.0928C43.0754 35.2221 43.7295 35.3272 44.3857 35.4092C43.7295 35.3272 43.0754 35.2221 42.4248 35.0928ZM16.0518 35.3487C15.906 35.3693 15.7603 35.39 15.6143 35.4082C15.7603 35.39 15.906 35.3692 16.0518 35.3487ZM51.6768 35.3487C51.531 35.3693 51.3853 35.39 51.2393 35.4082C51.3853 35.39 51.531 35.3692 51.6768 35.3487ZM39.4092 34.7305C39.4403 34.4305 39.5131 34.1428 39.6211 33.8731C39.5132 34.1428 39.4403 34.4305 39.4092 34.7305C39.1468 34.7522 38.8856 34.7841 38.626 34.8252C38.8854 34.7841 39.1469 34.7522 39.4092 34.7305ZM18.7061 34.7451C18.7155 34.7833 18.7235 34.822 18.7295 34.8613C18.7235 34.8221 18.7154 34.7832 18.7061 34.7451ZM54.3311 34.7451C54.3405 34.7833 54.3485 34.822 54.3545 34.8613C54.3485 34.8221 54.3404 34.7832 54.3311 34.7451ZM20.5918 34.7295C20.8739 34.753 21.1549 34.7882 21.4336 34.834C21.2844 34.8095 21.1346 34.7877 20.9844 34.7696C20.854 34.7538 20.7228 34.7404 20.5918 34.7295ZM5.69824 34.6367C5.70953 34.6036 5.72246 34.5711 5.73633 34.5391C5.72248 34.5711 5.70951 34.6036 5.69824 34.6367ZM41.3232 34.6367C41.3345 34.6036 41.3475 34.5711 41.3613 34.5391C41.3475 34.5711 41.3345 34.6036 41.3232 34.6367ZM18.6318 34.5283C18.6377 34.5415 18.643 34.555 18.6484 34.5684C18.643 34.555 18.6377 34.5415 18.6318 34.5283ZM54.2568 34.5283C54.2627 34.5415 54.268 34.555 54.2734 34.5684C54.268 34.555 54.2627 34.5415 54.2568 34.5283ZM5.76074 34.4883C5.76647 34.4765 5.77225 34.4648 5.77832 34.4531C5.77225 34.4648 5.76646 34.4765 5.76074 34.4883ZM18.585 34.4336C18.5947 34.4515 18.6034 34.4699 18.6123 34.4883C18.6034 34.4699 18.5947 34.4515 18.585 34.4336ZM41.3857 34.4883C41.3915 34.4765 41.3972 34.4648 41.4033 34.4531C41.3973 34.4648 41.3915 34.4765 41.3857 34.4883ZM54.21 34.4336C54.2197 34.4515 54.2284 34.4699 54.2373 34.4883C54.2284 34.4699 54.2197 34.4515 54.21 34.4336ZM5.80957 34.3955C5.8175 34.3821 5.82558 34.3687 5.83398 34.3555C5.82558 34.3687 5.81749 34.382 5.80957 34.3955ZM41.4346 34.3955C41.4425 34.3821 41.4506 34.3687 41.459 34.3555C41.4506 34.3687 41.4425 34.382 41.4346 34.3955ZM18.5312 34.3428C18.5408 34.3575 18.5496 34.3726 18.5586 34.3877C18.5496 34.3726 18.5408 34.3575 18.5312 34.3428ZM54.1562 34.3428C54.1658 34.3575 54.1746 34.3726 54.1836 34.3877C54.1746 34.3726 54.1658 34.3575 54.1562 34.3428ZM5.86328 34.3106C5.8702 34.3006 5.87757 34.291 5.88477 34.2813C5.87757 34.291 5.8702 34.3006 5.86328 34.3106ZM41.4883 34.3106C41.4952 34.3006 41.5026 34.291 41.5098 34.2813C41.5026 34.291 41.4952 34.3006 41.4883 34.3106ZM18.4678 34.2549C18.476 34.2655 18.4842 34.2762 18.4922 34.2871C18.4842 34.2762 18.476 34.2656 18.4678 34.2549ZM54.0928 34.2549C54.101 34.2655 54.1092 34.2762 54.1172 34.2871C54.1092 34.2762 54.101 34.2656 54.0928 34.2549ZM18.3965 34.1699C18.4073 34.1817 18.4174 34.194 18.4277 34.2061C18.4174 34.194 18.4073 34.1817 18.3965 34.1699ZM54.0215 34.1699C54.0323 34.1817 54.0424 34.194 54.0527 34.2061C54.0424 34.194 54.0323 34.1817 54.0215 34.1699ZM18.3242 34.0977C18.3327 34.1055 18.3404 34.114 18.3486 34.1221C18.3404 34.114 18.3327 34.1055 18.3242 34.0977ZM53.9492 34.0977C53.9577 34.1055 53.9654 34.114 53.9736 34.1221C53.9654 34.114 53.9577 34.1055 53.9492 34.0977ZM18.2402 34.0264C18.2488 34.0331 18.2572 34.04 18.2656 34.0469C18.2572 34.04 18.2488 34.0331 18.2402 34.0264ZM53.8652 34.0264C53.8738 34.0331 53.8822 34.04 53.8906 34.0469C53.8822 34.04 53.8738 34.0331 53.8652 34.0264ZM18.1201 33.9424C18.144 33.9571 18.1676 33.9721 18.1904 33.9883C18.1676 33.9721 18.144 33.9571 18.1201 33.9424ZM53.7451 33.9424C53.769 33.9571 53.7926 33.9721 53.8154 33.9883C53.7926 33.9721 53.769 33.9571 53.7451 33.9424ZM18.0176 33.8858C18.0465 33.9001 18.0749 33.9152 18.1025 33.9317C18.0749 33.9152 18.0465 33.9001 18.0176 33.8858ZM53.6426 33.8858C53.6715 33.9001 53.6999 33.9152 53.7275 33.9317C53.6999 33.9152 53.6715 33.9001 53.6426 33.8858ZM17.9414 33.8506C17.9632 33.8597 17.9847 33.8696 18.0059 33.8799C17.9846 33.8696 17.9632 33.8597 17.9414 33.8506ZM53.5664 33.8506C53.5882 33.8597 53.6097 33.8696 53.6309 33.8799C53.6096 33.8696 53.5882 33.8597 53.5664 33.8506ZM17.8545 33.8184C17.8661 33.8223 17.8782 33.8249 17.8896 33.8291C17.8782 33.8249 17.8661 33.8223 17.8545 33.8184ZM53.4795 33.8184C53.4911 33.8223 53.5032 33.8249 53.5146 33.8291C53.5032 33.8249 53.4911 33.8223 53.4795 33.8184ZM17.7168 33.7803C17.7051 33.7778 17.6935 33.7747 17.6816 33.7725L17.5635 33.7559C17.6156 33.7607 17.6667 33.7695 17.7168 33.7803ZM53.3418 33.7803C53.3301 33.7778 53.3185 33.7747 53.3066 33.7725L53.1885 33.7559C53.2406 33.7607 53.2917 33.7695 53.3418 33.7803ZM40.2275 32.9043H40.2285H40.2275ZM19.5703 32.7022H19.5713H19.5703ZM7.99023 31.5459C7.93898 31.581 7.88674 31.6146 7.83203 31.6446C7.88676 31.6146 7.939 31.581 7.99023 31.5459ZM43.6152 31.5459C43.564 31.581 43.5117 31.6146 43.457 31.6446C43.5118 31.6146 43.564 31.581 43.6152 31.5459ZM15.8818 31.0401C16.0126 31.2362 16.1766 31.4027 16.3633 31.5342C16.1764 31.4027 16.0126 31.2362 15.8818 31.0401ZM51.5068 31.0401C51.6376 31.2362 51.8016 31.4027 51.9883 31.5342C51.8014 31.4027 51.6376 31.2362 51.5068 31.0401ZM8.1543 31.419C8.12093 31.4477 8.0871 31.4757 8.05176 31.502C8.08709 31.4756 8.12095 31.4477 8.1543 31.419ZM43.7793 31.419C43.7459 31.4477 43.7121 31.4757 43.6768 31.502C43.7121 31.4756 43.7459 31.4477 43.7793 31.419ZM8.82812 30.5996C9.00765 30.3915 9.20425 30.2016 9.41602 30.0322C9.2043 30.2016 9.00762 30.3915 8.82812 30.5996ZM14.959 30.0322C15.1709 30.2017 15.3682 30.3913 15.5479 30.5996C15.3682 30.3913 15.1709 30.2017 14.959 30.0322ZM44.4531 30.5996C44.6327 30.3915 44.8293 30.2016 45.041 30.0322C44.8293 30.2016 44.6326 30.3915 44.4531 30.5996ZM50.584 30.0322C50.7959 30.2017 50.9932 30.3913 51.1729 30.5996C50.9932 30.3913 50.7959 30.2017 50.584 30.0322ZM25.582 25.9151C25.7293 25.9374 25.8768 25.9574 26.0244 25.9776C25.9069 25.9615 25.7892 25.9472 25.6719 25.9297L25.582 25.9151ZM43.3945 25.9151C43.5418 25.9374 43.6893 25.9574 43.8369 25.9776C43.7194 25.9615 43.6017 25.9472 43.4844 25.9297L43.3945 25.9151ZM9.14551 10.5899C10.2096 10.5866 11.2321 11.0024 11.9912 11.7481L12.1855 11.9395L12.3799 11.7481C13.1366 11.0022 14.1581 10.5862 15.2207 10.5899H15.2217C17.7575 10.59 19.9327 12.156 20.8359 14.3731L21.0928 15.003L21.3496 14.3731C22.252 12.1549 24.4248 10.5899 26.957 10.5899H26.958C28.0221 10.5866 29.0446 11.0024 29.8037 11.7481L29.998 11.9395L30.1924 11.7481C30.9491 11.0022 31.9706 10.5862 33.0332 10.5899H33.0342C35.57 10.59 37.7452 12.156 38.6484 14.3731L38.9053 15.003L39.1621 14.3731C40.0645 12.1549 42.2373 10.5899 44.7695 10.5899H44.7705C45.8346 10.5866 46.8571 11.0024 47.6162 11.7481L47.8105 11.9395L48.0049 11.7481C48.7616 11.0022 49.7831 10.5862 50.8457 10.5899L51.1465 10.5977C52.6451 10.6735 54.0668 11.3021 55.1328 12.3682C56.1987 13.4343 56.8278 14.8559 56.9033 16.3545L56.9102 16.6553C56.9099 18.7161 56.7063 20.7723 56.3018 22.793L55.96 24.5049C55.9344 24.6327 55.8715 24.7506 55.7793 24.8428C55.6871 24.9349 55.5692 24.9979 55.4414 25.0235L53.5127 25.4092C51.6387 25.7834 49.7209 25.9727 47.8125 25.9727C45.9041 25.9727 43.9863 25.7835 42.1113 25.4092L40.1816 25.0235C40.0539 24.998 39.9359 24.9349 39.8438 24.8428C39.7748 24.7738 39.7221 24.6907 39.6895 24.5996L39.6631 24.5059L39.3213 22.793C39.2677 22.5215 39.2269 22.2539 39.1777 21.9697H38.6328C38.5834 22.2554 38.5436 22.522 38.4893 22.792L38.1475 24.5049C38.1219 24.6327 38.059 24.7506 37.9668 24.8428C37.8746 24.9349 37.7567 24.9979 37.6289 25.0235L35.7002 25.4092C33.8262 25.7834 31.9084 25.9727 30 25.9727C28.0916 25.9727 26.1738 25.7835 24.2988 25.4092L22.3691 25.0235C22.2414 24.998 22.1234 24.9349 22.0312 24.8428C21.9623 24.7738 21.9096 24.6907 21.877 24.5996L21.8506 24.5059L21.5088 22.793C21.4552 22.5215 21.4144 22.2539 21.3652 21.9697H20.8203C20.7709 22.2554 20.7311 22.522 20.6768 22.792L20.335 24.5049C20.3094 24.6327 20.2465 24.7506 20.1543 24.8428C20.0621 24.9349 19.9442 24.9979 19.8164 25.0235L17.8877 25.4092C14.1247 26.1605 10.2502 26.1602 6.4873 25.4082L4.55762 25.0225C4.42987 24.9971 4.31183 24.9339 4.21973 24.8418C4.12766 24.7497 4.0645 24.6326 4.03906 24.5049L3.69727 22.792C3.29397 20.7765 3.08984 18.7117 3.08984 16.6543C3.09007 13.3056 5.80665 10.5899 9.14453 10.5899H9.14551ZM37.9414 25.2022H37.9424H37.9414ZM55.7539 25.2022H55.7549H55.7539ZM9.14355 11.9102C7.88883 11.9119 6.68607 12.4116 5.79883 13.2988C4.91148 14.1862 4.41174 15.3896 4.41016 16.6446C4.41001 18.6213 4.60503 20.5938 4.99219 22.5322L5.21289 23.6328L5.24902 23.8135L5.42969 23.8496L6.74609 24.1133H6.74707C10.3389 24.8271 14.0361 24.8271 17.6279 24.1133H17.6289L18.9453 23.8496L19.126 23.8135L19.1621 23.6328L19.3828 22.5332C19.7689 20.6028 19.9648 18.6244 19.9648 16.6543C19.9635 15.397 19.4631 14.191 18.5742 13.3018C17.6853 12.4126 16.4799 11.912 15.2227 11.9102H15.2207C14.7957 11.912 14.3771 12.0148 13.999 12.209C13.6209 12.4032 13.294 12.6839 13.0449 13.0283L12.9463 13.1641L13.5918 14.4551L12.4102 15.0479L11.5977 13.4229L11.5039 13.252C11.0103 12.4208 10.1223 11.9102 9.14453 11.9102H9.14355ZM26.9561 11.9102C25.7013 11.9119 24.4986 12.4116 23.6113 13.2988C22.724 14.1862 22.2242 15.3896 22.2227 16.6446C22.2225 18.6213 22.4175 20.5938 22.8047 22.5322L23.0254 23.6328L23.0615 23.8135L23.2422 23.8496L24.5586 24.1133H24.5596C28.1514 24.8271 31.8486 24.8271 35.4404 24.1133H35.4414L36.7578 23.8496L36.9385 23.8135L36.9746 23.6328L37.1953 22.5332C37.5814 20.6028 37.7773 18.6244 37.7773 16.6543C37.776 15.397 37.2756 14.191 36.3867 13.3018C35.4978 12.4126 34.2924 11.912 33.0352 11.9102H33.0332C32.6082 11.912 32.1896 12.0148 31.8115 12.209C31.4334 12.4032 31.1065 12.6839 30.8574 13.0283L30.7588 13.1641L31.4043 14.4551L30.2227 15.0479L29.4102 13.4229L29.3164 13.252C28.8228 12.4208 27.9348 11.9102 26.957 11.9102H26.9561ZM44.7686 11.9102C43.5138 11.9119 42.3111 12.4116 41.4238 13.2988C40.5365 14.1862 40.0367 15.3896 40.0352 16.6446C40.035 18.6213 40.23 20.5938 40.6172 22.5322L40.8379 23.6328L40.874 23.8135L41.0547 23.8496L42.3711 24.1133H42.3721C45.9639 24.8271 49.6611 24.8271 53.2529 24.1133H53.2539L54.5703 23.8496L54.751 23.8135L54.7871 23.6328L55.0078 22.5332C55.3939 20.6028 55.5898 18.6244 55.5898 16.6543C55.5885 15.397 55.0881 14.191 54.1992 13.3018C53.3103 12.4126 52.1049 11.912 50.8477 11.9102H50.8457C50.4207 11.912 50.0021 12.0148 49.624 12.209C49.2459 12.4032 48.919 12.6839 48.6699 13.0283L48.5713 13.1641L49.2168 14.4551L48.0352 15.0479L47.2227 13.4229L47.1289 13.252C46.6353 12.4208 45.7473 11.9102 44.7695 11.9102H44.7686ZM12.7041 24.3653C12.582 24.3675 12.46 24.3695 12.3379 24.3701C12.46 24.3695 12.582 24.3675 12.7041 24.3653ZM30.5166 24.3653C30.3945 24.3675 30.2725 24.3695 30.1504 24.3701C30.2725 24.3695 30.3945 24.3675 30.5166 24.3653ZM48.3291 24.3653C48.207 24.3675 48.085 24.3695 47.9629 24.3701C48.085 24.3695 48.207 24.3675 48.3291 24.3653ZM47.6621 24.3701C47.5296 24.3694 47.3971 24.3669 47.2646 24.3643C47.3971 24.3669 47.5296 24.3694 47.6621 24.3701ZM29.8496 24.3701C29.7171 24.3694 29.5846 24.3669 29.4521 24.3643C29.5846 24.3669 29.7171 24.3694 29.8496 24.3701ZM12.0371 24.3701C11.9046 24.3694 11.7721 24.3669 11.6396 24.3643C11.7721 24.3669 11.9046 24.3694 12.0371 24.3701ZM13.3486 24.3457C13.2181 24.3512 13.0876 24.3558 12.957 24.3594C13.0876 24.3558 13.2181 24.3512 13.3486 24.3457ZM31.1611 24.3457C31.0306 24.3512 30.9001 24.3558 30.7695 24.3594C30.9001 24.3558 31.0306 24.3512 31.1611 24.3457ZM48.9736 24.3457C48.8431 24.3512 48.7126 24.3558 48.582 24.3594C48.7126 24.3558 48.8431 24.3512 48.9736 24.3457ZM11.3799 24.3584C11.262 24.355 11.1442 24.3507 11.0264 24.3457C11.1442 24.3507 11.262 24.355 11.3799 24.3584ZM29.1924 24.3584C29.0745 24.355 28.9567 24.3507 28.8389 24.3457C28.9567 24.3507 29.0745 24.355 29.1924 24.3584ZM47.0049 24.3584C46.887 24.355 46.7692 24.3507 46.6514 24.3457C46.7692 24.3507 46.887 24.355 47.0049 24.3584ZM10.7129 24.3311C10.5725 24.3236 10.4323 24.3144 10.292 24.3047C10.4323 24.3144 10.5725 24.3236 10.7129 24.3311ZM14.0029 24.3096C13.8887 24.3171 13.7745 24.325 13.6602 24.3311C13.7745 24.325 13.8887 24.3171 14.0029 24.3096ZM28.5254 24.3311C28.385 24.3236 28.2448 24.3144 28.1045 24.3047C28.2448 24.3144 28.385 24.3236 28.5254 24.3311ZM31.8154 24.3096C31.7012 24.3171 31.587 24.325 31.4727 24.3311C31.587 24.325 31.7012 24.3171 31.8154 24.3096ZM46.3379 24.3311C46.1975 24.3236 46.0573 24.3144 45.917 24.3047C46.0573 24.3144 46.1975 24.3236 46.3379 24.3311ZM49.6279 24.3096C49.5137 24.3171 49.3995 24.325 49.2852 24.3311C49.3995 24.325 49.5137 24.3171 49.6279 24.3096ZM10.0977 24.291C9.93739 24.2789 9.77727 24.265 9.61719 24.25C9.77727 24.265 9.93739 24.2789 10.0977 24.291ZM27.9102 24.291C27.7499 24.2789 27.5898 24.265 27.4297 24.25C27.5898 24.265 27.7499 24.2789 27.9102 24.291ZM45.7227 24.291C45.5624 24.2789 45.4023 24.265 45.2422 24.25C45.4023 24.265 45.5624 24.2789 45.7227 24.291ZM14.6826 24.2569C14.5502 24.2689 14.4177 24.28 14.2852 24.2901C14.4177 24.28 14.5502 24.2689 14.6826 24.2569ZM32.4951 24.2569C32.3627 24.2689 32.2302 24.28 32.0977 24.2901C32.2302 24.28 32.3627 24.2689 32.4951 24.2569ZM50.3076 24.2569C50.1752 24.2689 50.0427 24.28 49.9102 24.2901C50.0427 24.28 50.1752 24.2689 50.3076 24.2569ZM9.42969 24.2324C9.27884 24.2173 9.12819 24.2003 8.97754 24.1826C9.12819 24.2003 9.27884 24.2173 9.42969 24.2324ZM27.2422 24.2324C27.0913 24.2173 26.9407 24.2003 26.79 24.1826C26.9407 24.2003 27.0913 24.2173 27.2422 24.2324ZM45.0547 24.2324C44.9038 24.2173 44.7532 24.2003 44.6025 24.1826C44.7532 24.2003 44.9038 24.2173 45.0547 24.2324ZM15.2949 24.1944C15.1813 24.2072 15.0678 24.22 14.9541 24.2315C15.0678 24.22 15.1813 24.2072 15.2949 24.1944ZM33.1074 24.1944C32.9938 24.2072 32.8803 24.22 32.7666 24.2315C32.8803 24.22 32.9938 24.2072 33.1074 24.1944ZM50.9199 24.1944C50.8063 24.2072 50.6928 24.22 50.5791 24.2315C50.6928 24.22 50.8063 24.2072 50.9199 24.1944ZM6.80078 23.8418C7.45133 23.9711 8.10546 24.0762 8.76172 24.1582C8.10545 24.0762 7.45134 23.9711 6.80078 23.8418ZM24.6133 23.8418C25.2638 23.9711 25.918 24.0762 26.5742 24.1582C25.918 24.0762 25.2638 23.9711 24.6133 23.8418ZM42.4258 23.8418C43.0763 23.9711 43.7305 24.0762 44.3867 24.1582C43.7305 24.0762 43.0763 23.9711 42.4258 23.8418ZM16.0527 24.0977C15.907 24.1183 15.7612 24.139 15.6152 24.1572C15.7612 24.139 15.907 24.1183 16.0527 24.0977ZM33.8652 24.0977C33.7195 24.1183 33.5737 24.139 33.4277 24.1572C33.5737 24.139 33.7195 24.1183 33.8652 24.0977ZM51.6777 24.0977C51.532 24.1183 51.3862 24.139 51.2402 24.1572C51.3862 24.139 51.532 24.1183 51.6777 24.0977ZM19.2451 21.7588H19.2461H19.2451ZM37.0576 21.7588H37.0586H37.0576ZM54.8701 21.7588H54.8711H54.8701ZM5.11035 21.6465C5.0778 21.4554 5.04736 21.264 5.01855 21.0723C5.04737 21.2639 5.07779 21.4554 5.11035 21.6465ZM22.9229 21.6465C22.8903 21.4554 22.8599 21.264 22.8311 21.0723C22.8599 21.2639 22.8903 21.4554 22.9229 21.6465ZM40.7354 21.6465C40.7028 21.4554 40.6724 21.264 40.6436 21.0723C40.6724 21.2639 40.7028 21.4554 40.7354 21.6465ZM4.98438 20.834C4.96557 20.7016 4.94768 20.5691 4.93066 20.4365C4.94768 20.5691 4.96557 20.7016 4.98438 20.834ZM22.7969 20.834C22.7781 20.7016 22.7602 20.5691 22.7432 20.4365C22.7602 20.5691 22.7781 20.7016 22.7969 20.834ZM40.6094 20.834C40.5906 20.7016 40.5727 20.5691 40.5557 20.4365C40.5727 20.5691 40.5906 20.7016 40.6094 20.834ZM4.89648 20.1553C4.87831 20.0021 4.86052 19.8488 4.84473 19.6953C4.86053 19.8488 4.8783 20.0021 4.89648 20.1553ZM22.709 20.1553C22.6908 20.0021 22.673 19.8488 22.6572 19.6953C22.673 19.8488 22.6908 20.0021 22.709 20.1553ZM40.5215 20.1553C40.5033 20.0021 40.4855 19.8488 40.4697 19.6953C40.4855 19.8488 40.5033 20.0021 40.5215 20.1553ZM19.6055 18.8506H19.6064H19.6055ZM37.418 18.8506H37.4189H37.418ZM55.2305 18.8506H55.2314H55.2305ZM4.82422 19.4873C4.80833 19.3214 4.79436 19.1554 4.78125 18.9893C4.79436 19.1554 4.80832 19.3214 4.82422 19.4873ZM22.6367 19.4873C22.6208 19.3214 22.6069 19.1554 22.5938 18.9893C22.6069 19.1554 22.6208 19.3214 22.6367 19.4873ZM40.4492 19.4873C40.4333 19.3214 40.4194 19.1554 40.4062 18.9893C40.4194 19.1554 40.4333 19.3214 40.4492 19.4873ZM4.76172 18.7481C4.74907 18.5692 4.73891 18.3901 4.72949 18.211C4.73892 18.3901 4.74906 18.5692 4.76172 18.7481ZM22.5742 18.7481C22.5616 18.5692 22.5514 18.3901 22.542 18.211C22.5514 18.3901 22.5616 18.5692 22.5742 18.7481ZM40.3867 18.7481C40.3741 18.5692 40.3639 18.3901 40.3545 18.211C40.3639 18.3901 40.3741 18.5692 40.3867 18.7481ZM4.69629 17.3789C4.70213 17.6164 4.71114 17.8537 4.72266 18.0908C4.71115 17.8537 4.70213 17.6164 4.69629 17.3789ZM22.5088 17.3789C22.5146 17.6164 22.5236 17.8537 22.5352 18.0908C22.5236 17.8537 22.5146 17.6164 22.5088 17.3789ZM40.3213 17.3789C40.3271 17.6164 40.3361 17.8537 40.3477 18.0908C40.3361 17.8537 40.3271 17.6164 40.3213 17.3789ZM19.665 16.2237C19.679 16.3662 19.6873 16.5098 19.6875 16.6543C19.6873 16.5098 19.679 16.3662 19.665 16.2237ZM37.4775 16.2237C37.4915 16.3662 37.4998 16.5098 37.5 16.6543C37.4998 16.5098 37.4915 16.3662 37.4775 16.2237ZM55.29 16.2237C55.304 16.3662 55.3123 16.5098 55.3125 16.6543C55.3123 16.5098 55.304 16.3662 55.29 16.2237ZM19.6064 15.8184C19.6114 15.844 19.6157 15.8698 19.6201 15.8955C19.6157 15.8698 19.6114 15.844 19.6064 15.8184ZM37.4189 15.8184C37.4239 15.844 37.4282 15.8698 37.4326 15.8955C37.4282 15.8698 37.4239 15.844 37.4189 15.8184ZM55.2314 15.8184C55.2364 15.844 55.2407 15.8698 55.2451 15.8955C55.2407 15.8698 55.2364 15.844 55.2314 15.8184ZM19.5566 15.5889C19.5648 15.622 19.5727 15.6552 19.5801 15.6885C19.5727 15.6552 19.5648 15.622 19.5566 15.5889ZM37.3691 15.5889C37.3773 15.622 37.3852 15.6552 37.3926 15.6885C37.3852 15.6552 37.3773 15.622 37.3691 15.5889ZM55.1816 15.5889C55.1898 15.622 55.1977 15.6552 55.2051 15.6885C55.1977 15.6552 55.1898 15.622 55.1816 15.5889ZM19.499 15.377C19.5104 15.4149 19.5209 15.453 19.5312 15.4912C19.5209 15.453 19.5104 15.4149 19.499 15.377ZM37.3115 15.377C37.3229 15.4149 37.3334 15.453 37.3438 15.4912C37.3334 15.453 37.3229 15.4149 37.3115 15.377ZM55.124 15.377C55.1354 15.4149 55.1459 15.453 55.1562 15.4912C55.1459 15.453 55.1354 15.4149 55.124 15.377ZM19.4365 15.1865C19.4468 15.2161 19.4571 15.2456 19.4668 15.2754C19.4571 15.2456 19.4468 15.2161 19.4365 15.1865ZM37.249 15.1865C37.2593 15.2161 37.2696 15.2456 37.2793 15.2754C37.2696 15.2456 37.2593 15.2161 37.249 15.1865ZM55.0615 15.1865C55.0718 15.2161 55.0821 15.2456 55.0918 15.2754C55.0821 15.2456 55.0718 15.2161 55.0615 15.1865ZM19.3594 14.9805C19.3757 15.0209 19.3911 15.0617 19.4062 15.1026C19.3911 15.0617 19.3757 15.0209 19.3594 14.9805ZM37.1719 14.9805C37.1882 15.0209 37.2036 15.0617 37.2188 15.1026C37.2036 15.0617 37.1882 15.0209 37.1719 14.9805ZM54.9844 14.9805C55.0007 15.0209 55.0161 15.0617 55.0312 15.1026C55.0161 15.0617 55.0007 15.0209 54.9844 14.9805ZM19.2676 14.7696C19.2867 14.8106 19.3053 14.8519 19.3232 14.8936C19.3053 14.8519 19.2867 14.8106 19.2676 14.7696ZM37.0801 14.7696C37.0992 14.8106 37.1178 14.8519 37.1357 14.8936C37.1178 14.8519 37.0992 14.8106 37.0801 14.7696ZM54.8926 14.7696C54.9117 14.8106 54.9303 14.8519 54.9482 14.8936C54.9303 14.8519 54.9117 14.8106 54.8926 14.7696ZM19.1738 14.5801C19.1974 14.625 19.2202 14.6702 19.2422 14.7158C19.2202 14.6702 19.1974 14.625 19.1738 14.5801ZM36.9863 14.5801C37.0099 14.625 37.0327 14.6702 37.0547 14.7158C37.0327 14.6702 37.0099 14.625 36.9863 14.5801ZM54.7988 14.5801C54.8224 14.625 54.8452 14.6702 54.8672 14.7158C54.8452 14.6702 54.8224 14.625 54.7988 14.5801ZM19.0586 14.3731C19.0907 14.4271 19.1216 14.4818 19.1514 14.5371C19.1216 14.4819 19.0907 14.4271 19.0586 14.3731ZM36.8711 14.3731C36.9032 14.4271 36.9341 14.4818 36.9639 14.5371C36.9341 14.4819 36.9032 14.4271 36.8711 14.3731ZM54.6836 14.3731C54.7157 14.4271 54.7466 14.4818 54.7764 14.5371C54.7466 14.4819 54.7157 14.4271 54.6836 14.3731ZM3.19727 14.4746C3.26847 14.2802 3.34932 14.0903 3.43848 13.9053C3.34932 14.0903 3.26847 14.2802 3.19727 14.4746ZM5.56348 13.9942C5.52015 14.0527 5.47879 14.1125 5.43848 14.1729L5.32129 14.3574C5.35859 14.2951 5.39711 14.2334 5.4375 14.1729L5.56348 13.9942ZM23.376 13.9942C23.3327 14.0527 23.2913 14.1125 23.251 14.1729L23.1338 14.3574C23.1711 14.2951 23.2096 14.2334 23.25 14.1729L23.376 13.9942ZM41.1885 13.9942C41.1451 14.0527 41.1038 14.1125 41.0635 14.1729L40.9463 14.3574C40.9836 14.2951 41.0221 14.2334 41.0625 14.1729L41.1885 13.9942ZM18.9492 14.1992C18.9806 14.2469 19.0115 14.295 19.041 14.3438C19.0115 14.295 18.9807 14.2469 18.9492 14.1992ZM36.7617 14.1992C36.7931 14.2469 36.824 14.295 36.8535 14.3438C36.824 14.295 36.7932 14.2469 36.7617 14.1992ZM54.5742 14.1992C54.6056 14.2469 54.6365 14.295 54.666 14.3438C54.6365 14.295 54.6057 14.2469 54.5742 14.1992ZM18.6914 13.8477C18.7762 13.9525 18.8561 14.0605 18.9307 14.1719C18.8561 14.0605 18.7762 13.9525 18.6914 13.8477ZM36.5039 13.8477C36.5887 13.9525 36.6686 14.0605 36.7432 14.1719C36.6686 14.0605 36.5887 13.9525 36.5039 13.8477ZM54.3164 13.8477C54.4012 13.9525 54.4811 14.0605 54.5557 14.1719C54.4811 14.0605 54.4012 13.9525 54.3164 13.8477ZM20.4883 13.1338C20.4756 13.1149 20.4631 13.0959 20.4502 13.0772C20.4631 13.0959 20.4756 13.1149 20.4883 13.1338ZM38.3008 13.1338C38.2881 13.1149 38.2756 13.0959 38.2627 13.0772C38.2756 13.0959 38.2881 13.1149 38.3008 13.1338ZM6.85742 12.8213C6.79495 12.8587 6.73354 12.898 6.67285 12.9385L6.49414 13.0635C6.55281 13.0201 6.61228 12.9779 6.67285 12.9375L6.85742 12.8213ZM24.6699 12.8213C24.6074 12.8587 24.546 12.898 24.4854 12.9385L24.3066 13.0635C24.3653 13.0201 24.4248 12.9779 24.4854 12.9375L24.6699 12.8213ZM42.4824 12.8213C42.4199 12.8587 42.3585 12.898 42.2979 12.9385L42.1191 13.0635C42.1778 13.0201 42.2373 12.9779 42.2979 12.9375L42.4824 12.8213ZM10.9785 13.002C10.9964 13.0219 11.013 13.043 11.0303 13.0635C11.013 13.043 10.9964 13.0219 10.9785 13.002ZM28.791 13.002C28.8089 13.0219 28.8255 13.043 28.8428 13.0635C28.8255 13.043 28.8089 13.0219 28.791 13.002ZM46.6035 13.002C46.6214 13.0219 46.638 13.043 46.6553 13.0635C46.638 13.043 46.6214 13.0219 46.6035 13.002ZM13.4092 13.0156C13.4183 13.0052 13.4272 12.9947 13.4365 12.9844C13.4272 12.9947 13.4183 13.0052 13.4092 13.0156ZM31.2217 13.0156C31.2308 13.0052 31.2397 12.9947 31.249 12.9844C31.2397 12.9947 31.2308 13.0052 31.2217 13.0156ZM49.0342 13.0156C49.0433 13.0052 49.0522 12.9947 49.0615 12.9844C49.0522 12.9947 49.0433 13.0052 49.0342 13.0156ZM10.8486 12.8682C10.8724 12.8909 10.8951 12.9148 10.918 12.9385C10.8951 12.9148 10.8724 12.8909 10.8486 12.8682ZM28.6611 12.8682C28.6849 12.8909 28.7076 12.9148 28.7305 12.9385C28.7076 12.9148 28.6849 12.8909 28.6611 12.8682ZM46.4736 12.8682C46.4974 12.8909 46.5201 12.9148 46.543 12.9385C46.5201 12.9148 46.4974 12.8909 46.4736 12.8682ZM10.7402 12.7705C10.7648 12.7914 10.7887 12.8131 10.8125 12.835C10.7887 12.8131 10.7648 12.7914 10.7402 12.7705ZM28.5527 12.7705C28.5773 12.7914 28.6012 12.8131 28.625 12.835C28.6012 12.8131 28.5773 12.7914 28.5527 12.7705ZM46.3652 12.7705C46.3898 12.7914 46.4137 12.8131 46.4375 12.835C46.4137 12.8131 46.3898 12.7914 46.3652 12.7705ZM10.6025 12.6621C10.6263 12.6796 10.6497 12.6976 10.6729 12.7158C10.6497 12.6976 10.6263 12.6796 10.6025 12.6621ZM28.415 12.6621C28.4388 12.6796 28.4622 12.6976 28.4854 12.7158C28.4622 12.6976 28.4388 12.6796 28.415 12.6621ZM46.2275 12.6621C46.2513 12.6796 46.2747 12.6976 46.2979 12.7158C46.2747 12.6976 46.2513 12.6796 46.2275 12.6621ZM10.4707 12.5723C10.4971 12.5891 10.5231 12.6063 10.5488 12.624C10.5231 12.6063 10.4971 12.5891 10.4707 12.5723ZM28.2832 12.5723C28.3096 12.5891 28.3356 12.6063 28.3613 12.624C28.3356 12.6063 28.3096 12.5891 28.2832 12.5723ZM46.0957 12.5723C46.1221 12.5891 46.1481 12.6063 46.1738 12.624C46.1481 12.6063 46.1221 12.5891 46.0957 12.5723ZM10.3398 12.4951C10.3595 12.506 10.3791 12.5169 10.3984 12.5283C10.3791 12.5169 10.3595 12.506 10.3398 12.4951ZM28.1523 12.4951C28.172 12.506 28.1916 12.5169 28.2109 12.5283C28.1916 12.5169 28.172 12.506 28.1523 12.4951ZM45.9648 12.4951C45.9845 12.506 46.0041 12.5169 46.0234 12.5283C46.0041 12.5169 45.9845 12.506 45.9648 12.4951ZM10.1895 12.418C10.2151 12.4299 10.2404 12.4423 10.2656 12.4551C10.2405 12.4423 10.2151 12.4299 10.1895 12.418ZM28.002 12.418C28.0276 12.4299 28.0529 12.4423 28.0781 12.4551C28.053 12.4423 28.0276 12.4299 28.002 12.418ZM45.8145 12.418C45.8401 12.4299 45.8655 12.4423 45.8906 12.4551C45.8655 12.4423 45.8401 12.4299 45.8145 12.418ZM10.0381 12.3545C10.0655 12.3651 10.0931 12.3752 10.1201 12.3867C10.0931 12.3752 10.0655 12.3651 10.0381 12.3545ZM27.8506 12.3545C27.878 12.3651 27.9056 12.3752 27.9326 12.3867C27.9056 12.3752 27.878 12.3651 27.8506 12.3545ZM45.6631 12.3545C45.6905 12.3651 45.7181 12.3752 45.7451 12.3867C45.7181 12.3752 45.6905 12.3651 45.6631 12.3545ZM9.87012 12.2959C9.90129 12.3054 9.93221 12.3155 9.96289 12.3262C9.93221 12.3155 9.90129 12.3054 9.87012 12.2959ZM27.6826 12.2959C27.7138 12.3054 27.7447 12.3155 27.7754 12.3262C27.7447 12.3155 27.7138 12.3054 27.6826 12.2959ZM45.4951 12.2959C45.5263 12.3054 45.5572 12.3155 45.5879 12.3262C45.5572 12.3155 45.5263 12.3054 45.4951 12.2959ZM15.4443 12.1934H15.4434H15.4443ZM33.2568 12.1934H33.2559H33.2568ZM51.0693 12.1934H51.0684H51.0693ZM9.66309 12.2412C9.60645 12.2292 9.54902 12.22 9.49121 12.2119L9.31934 12.1934C9.43592 12.2015 9.55076 12.2174 9.66309 12.2412ZM27.4756 12.2412C27.4189 12.2292 27.3615 12.22 27.3037 12.2119L27.1318 12.1934C27.2484 12.2015 27.3633 12.2174 27.4756 12.2412ZM45.2881 12.2412C45.2314 12.2292 45.174 12.22 45.1162 12.2119L44.9443 12.1934C45.0609 12.2015 45.1758 12.2174 45.2881 12.2412ZM7.56348 10.5127H7.56445H7.56348ZM15.4688 10.3174C15.6756 10.3254 15.8797 10.3447 16.0811 10.3721C15.8797 10.3447 15.6756 10.3254 15.4688 10.3174ZM33.2812 10.3174C33.4881 10.3254 33.6922 10.3447 33.8936 10.3721C33.6922 10.3447 33.4881 10.3254 33.2812 10.3174ZM15.0098 10.3174C15.0801 10.3142 15.151 10.3123 15.2217 10.3125C15.1508 10.3123 15.0802 10.3142 15.0098 10.3174ZM32.8223 10.3174C32.8926 10.3142 32.9635 10.3123 33.0342 10.3125C32.9633 10.3123 32.8927 10.3142 32.8223 10.3174ZM50.6348 10.3174C50.7051 10.3142 50.776 10.3123 50.8467 10.3125C50.7758 10.3123 50.7052 10.3142 50.6348 10.3174ZM55.3525 45.8584C55.3219 45.9692 55.291 46.08 55.2588 46.1905C55.291 46.08 55.3219 45.9692 55.3525 45.8584ZM19.8643 45.3467C19.8294 45.4841 19.793 45.621 19.7559 45.7578C19.793 45.621 19.8294 45.4841 19.8643 45.3467ZM42.1143 45.4854C42.1283 45.5352 42.1418 45.5851 42.1562 45.6348C42.1418 45.5851 42.1283 45.5351 42.1143 45.4854ZM55.9473 43.1084C55.9307 43.2134 55.9124 43.3181 55.8945 43.4229C55.9124 43.3181 55.9307 43.2134 55.9473 43.1084ZM5.69629 41.0537C5.68529 40.9142 5.67544 40.7746 5.66699 40.6348C5.67544 40.7746 5.68529 40.9142 5.69629 41.0537ZM5.67383 34.7197C5.68132 34.6918 5.68895 34.664 5.69824 34.6367C5.68897 34.664 5.6813 34.6918 5.67383 34.7197ZM41.2988 34.7197C41.3063 34.6918 41.3139 34.664 41.3232 34.6367C41.314 34.664 41.3063 34.6918 41.2988 34.7197ZM16.9062 23.9658C16.684 24.0044 16.4612 24.0392 16.2383 24.0723C16.4612 24.0392 16.684 24.0044 16.9062 23.9658ZM34.7188 23.9658C34.4965 24.0044 34.2737 24.0392 34.0508 24.0723C34.2737 24.0392 34.4965 24.0044 34.7188 23.9658ZM52.5312 23.9658C52.309 24.0044 52.0862 24.0392 51.8633 24.0723C52.0862 24.0392 52.309 24.0044 52.5312 23.9658ZM19.6396 16.0166C19.6479 16.0737 19.655 16.131 19.6611 16.1885C19.655 16.131 19.6479 16.0737 19.6396 16.0166ZM37.4521 16.0166C37.4604 16.0737 37.4675 16.131 37.4736 16.1885C37.4675 16.131 37.4604 16.0737 37.4521 16.0166ZM55.2646 16.0166C55.2729 16.0737 55.28 16.131 55.2861 16.1885C55.28 16.131 55.2729 16.0737 55.2646 16.0166ZM11.0752 13.1172C11.1069 13.1572 11.1376 13.1981 11.167 13.2403C11.1376 13.1981 11.1069 13.1572 11.0752 13.1172ZM11.1738 13.249C11.1997 13.2865 11.2241 13.3252 11.248 13.3643C11.2241 13.3252 11.1997 13.2865 11.1738 13.249ZM28.8877 13.1172C28.9194 13.1572 28.9501 13.1981 28.9795 13.2403C28.9501 13.1981 28.9194 13.1572 28.8877 13.1172ZM28.9863 13.249C29.0122 13.2865 29.0366 13.3252 29.0605 13.3643C29.0366 13.3252 29.0122 13.2865 28.9863 13.249ZM46.7002 13.1172C46.7319 13.1572 46.7626 13.1981 46.792 13.2403C46.7626 13.1981 46.7319 13.1572 46.7002 13.1172ZM46.7988 13.249C46.8247 13.2865 46.8491 13.3252 46.873 13.3643C46.8491 13.3252 46.8247 13.2865 46.7988 13.249ZM20.6367 13.3662C20.6147 13.33 20.5931 13.2936 20.5703 13.2578C20.5931 13.2936 20.6147 13.33 20.6367 13.3662ZM38.4492 13.3662C38.4272 13.33 38.4056 13.2936 38.3828 13.2578C38.4056 13.2936 38.4272 13.33 38.4492 13.3662ZM9.66309 12.2412C9.71445 12.2521 9.76515 12.2652 9.81543 12.2793C9.76516 12.2653 9.71445 12.2521 9.66309 12.2412ZM27.4756 12.2412C27.527 12.2521 27.5777 12.2652 27.6279 12.2793C27.5777 12.2653 27.5269 12.2521 27.4756 12.2412ZM45.2881 12.2412C45.3395 12.2521 45.3902 12.2652 45.4404 12.2793C45.3902 12.2653 45.3395 12.2521 45.2881 12.2412Z" fill="#1C6EF3"></path><path d="M30.1025 34.6816L29.998 34.6875C30.0463 34.6875 30.0942 34.6823 30.1416 34.6748C30.1286 34.6768 30.1157 34.6802 30.1025 34.6816ZM29.3359 34.4121H29.3369H29.3359ZM33.7471 28.4004L33.8398 28.4062C33.9317 28.4193 34.0205 28.4523 34.0996 28.502C34.2043 28.5678 34.2885 28.6614 34.3428 28.7725V28.7734C34.4525 29.0029 34.4216 29.2743 34.2627 29.4736L30.5137 34.1611L30.5127 34.1621C30.4512 34.2394 30.3731 34.3018 30.2842 34.3447C30.1951 34.3877 30.097 34.4101 29.998 34.4102C29.8991 34.4102 29.8011 34.3878 29.7119 34.3447C29.623 34.3018 29.5449 34.2394 29.4834 34.1621L29.4824 34.1611L25.7324 29.4736C25.655 29.3764 25.6068 29.2592 25.5928 29.1357C25.5788 29.0123 25.5996 28.8874 25.6533 28.7754C25.7071 28.6634 25.7914 28.5683 25.8965 28.502C25.9753 28.4522 26.0637 28.4195 26.1553 28.4062L26.248 28.4004H33.7471ZM27.6221 29.7207L27.9824 30.1709L29.7812 32.4199L29.9971 32.6904L30.2139 32.4199L32.0137 30.1709L32.374 29.7207H27.6221ZM25.5488 28.4375H25.5498C25.5208 28.4701 25.494 28.5046 25.4697 28.541H25.4688C25.493 28.5046 25.5198 28.4701 25.5488 28.4375ZM34.4463 28.4355H34.4473H34.4463Z" fill="#1C6EF3"></path></svg>